# xmcd CD database file
#
# Track frame offsets:
#	150
#	16250
#	27630
#	39527
#	60048
#	77441
#	86643
#	98506
#	111856
#	119271
#	132886
#	147750
#	158802
#	173818
#	189883
#	200051
#	209545
#	220634
#	234890
#	246259
#	258319
#
# Disc length: 3624 seconds
#
# Revision: 2
# Processed by: cddbd v1.5.2PL0 Copyright (c) Steve Scherf et al.
# Submitted via: CDex 1.51
#
DISCID=100e2615
DTITLE=Glenn Miller - The Jazz Masters - 100 Years Of Swing
DYEAR=1900
DGENRE=Jazz
TTITLE0=American Patrol
TTITLE1=Chatanooga Choo Choo
TTITLE2=In The Mood
TTITLE3=Moonlight Serenade
TTITLE4=Tuxedo Junction
TTITLE5=Sunrise Serenade
TTITLE6=I've Got A Girl In Kalamazoo
TTITLE7=Pennsylvania
TTITLE8=Music Makers
TTITLE9=Seven Or Five
TTITLE10=Jeep Jockey Jump
TTITLE11=Danny Boy
TTITLE12=A String Of Pearls
TTITLE13=Falling Leavers
TTITLE14=Over The Rainbow
TTITLE15=Serenade In Blue
TTITLE16=Sun Valley Jump
TTITLE17=My Love For You
TTITLE18=Lover
TTITLE19=Little Brown Jug
TTITLE20=Caribean Clipper
EXTD=
EXTT0=
EXTT1=
EXTT2=
EXTT3=
EXTT4=
EXTT5=
EXTT6=
EXTT7=
EXTT8=
EXTT9=
EXTT10=
EXTT11=
EXTT12=
EXTT13=
EXTT14=
EXTT15=
EXTT16=
EXTT17=
EXTT18=
EXTT19=
EXTT20=
PLAYORDER=
